<svg width="920" height="248" viewBox="0 0 920 248" fill="none" xmlns="http://www.w3.org/2000/svg">
<path d="M8.40213 105C5.77116 105 3.69184 104.214 2.16418 102.642C0.721394 100.978 0 98.6196 0 95.568V55.5515V15.535C0 12.4835 0.721394 10.1717 2.16418 8.59973C3.69184 6.93527 5.85603 6.10303 8.65674 6.10303H53.0862C55.2928 6.10303 56.9477 6.70409 58.0511 7.90621C59.1544 9.10832 59.706 10.819 59.706 13.0383C59.706 15.3501 59.1544 17.1532 58.0511 18.4478C56.9477 19.6499 55.2928 20.251 53.0862 20.251H16.295V47.8534H50.4128C52.5345 47.8534 54.147 48.4544 55.2503 49.6565C56.4385 50.8587 57.0326 52.5693 57.0326 54.7886C57.0326 57.1004 56.4385 58.9036 55.2503 60.1981C54.147 61.4003 52.5345 62.0013 50.4128 62.0013H16.295V95.568C16.295 101.856 13.6641 105 8.40213 105Z" fill="black"/>
<path d="M221.884 101.948C219.253 101.948 217.216 101.163 215.773 99.5905C214.331 97.926 213.609 95.6605 213.609 92.7939V52.7774V12.7609C213.609 9.80185 214.288 7.58256 215.646 6.10303C217.089 4.53104 219.126 3.74505 221.757 3.74505C224.388 3.74505 226.382 4.53104 227.74 6.10303C229.183 7.58256 229.904 9.80185 229.904 12.7609V86.8296H266.822C269.114 86.8296 270.854 87.4769 272.042 88.7715C273.315 90.066 273.952 91.9155 273.952 94.3197C273.952 96.7239 273.315 98.6196 272.042 100.007C270.854 101.301 269.114 101.948 266.822 101.948H221.884Z" fill="black"/>
<path d="M633.693 100.007C631.571 100.007 629.831 99.4056 628.473 98.2035C627.115 96.9089 626.309 95.3369 626.055 93.4875C625.885 91.5456 626.479 89.6037 627.837 87.6619L656.99 45.3567V52.9855L629.237 12.4835C627.879 10.4491 627.285 8.50725 627.455 6.65785C627.625 4.71597 628.388 3.14398 629.746 1.94187C631.104 0.647284 632.802 0 634.839 0C636.536 0 638.021 0.462345 639.294 1.38705C640.652 2.21929 642.01 3.65257 643.368 5.68691L666.283 40.0859H661.063L683.851 5.68691C685.209 3.65257 686.524 2.21929 687.797 1.38705C689.155 0.462345 690.725 0 692.508 0C694.629 0 696.369 0.601057 697.727 1.80317C699.085 3.00529 699.849 4.57727 700.019 6.51915C700.188 8.36856 699.552 10.3567 698.109 12.4835L670.357 52.9855V45.3567L699.382 87.6619C700.74 89.6037 701.334 91.5456 701.164 93.4875C700.995 95.3369 700.231 96.9089 698.873 98.2035C697.515 99.4056 695.733 100.007 693.526 100.007C691.914 100.007 690.428 99.5443 689.07 98.6196C687.797 97.6949 686.44 96.2154 684.997 94.181L660.809 58.1176H666.41L642.35 94.181C640.992 96.2154 639.634 97.6949 638.276 98.6196C636.918 99.5443 635.39 100.007 633.693 100.007Z" fill="black"/>
<path d="M882.946 101.944C880.315 101.944 878.278 101.158 876.836 99.5862C875.478 97.9217 874.799 95.6099 874.799 92.6509V50.4845L878.236 61.1648L847.555 14.1437C846.452 12.4792 845.943 10.7223 846.028 8.87286C846.198 6.93098 846.919 5.31273 848.192 4.01815C849.465 2.63109 851.247 1.93758 853.539 1.93758C855.236 1.93758 856.764 2.39993 858.122 3.32464C859.565 4.24934 860.923 5.68263 862.196 7.6245L884.983 42.8557H881.419L904.333 7.6245C905.691 5.59016 907.007 4.15687 908.28 3.32464C909.553 2.39993 911.123 1.93758 912.99 1.93758C915.197 1.93758 916.894 2.58487 918.082 3.87945C919.356 5.08157 919.992 6.60733 919.992 8.45674C920.077 10.3061 919.483 12.248 918.21 14.2824L887.784 61.1648L891.094 50.4845V92.6509C891.094 98.8464 888.378 101.944 882.946 101.944Z" fill="black"/>
<rect opacity="0.9" x="410" y="19" width="17" height="91" rx="8.5" transform="rotate(-90 410 19)" fill="black"/>
<rect opacity="0.9" x="410" y="58" width="17" height="91" rx="8.5" transform="rotate(-90 410 58)" fill="black"/>
<rect opacity="0.9" x="410" y="97" width="17" height="91" rx="8.5" transform="rotate(-90 410 97)" fill="black"/>
<path d="M339.889 220.79C333.727 220.79 328.513 219.631 324.247 217.314C320.034 214.997 316.821 211.705 314.609 207.439C312.397 203.173 311.291 198.117 311.291 192.271C311.291 187.847 311.923 183.871 313.187 180.342C314.504 176.813 316.374 173.811 318.796 171.336C321.272 168.808 324.274 166.886 327.802 165.569C331.331 164.2 335.334 163.515 339.81 163.515C342.76 163.515 345.709 163.884 348.658 164.621C351.66 165.306 354.478 166.491 357.111 168.176C358.007 168.755 358.586 169.466 358.849 170.309C359.165 171.152 359.218 172.021 359.007 172.916C358.797 173.759 358.402 174.496 357.822 175.128C357.243 175.76 356.506 176.155 355.61 176.313C354.768 176.471 353.82 176.26 352.766 175.681C350.765 174.522 348.737 173.68 346.683 173.153C344.629 172.626 342.338 172.363 339.81 172.363C335.913 172.363 332.621 173.153 329.935 174.733C327.249 176.26 325.222 178.499 323.852 181.448C322.536 184.397 321.877 188.005 321.877 192.271C321.877 198.749 323.431 203.673 326.538 207.044C329.646 210.415 334.254 212.1 340.363 212.1C342.47 212.1 344.603 211.889 346.762 211.468C348.922 211.047 351.028 210.467 353.082 209.73L351.107 214.233V197.406H342.417C341.101 197.406 340.074 197.064 339.336 196.379C338.652 195.694 338.309 194.773 338.309 193.614C338.309 192.403 338.652 191.481 339.336 190.849C340.074 190.217 341.101 189.901 342.417 189.901H355.452C356.769 189.901 357.77 190.27 358.454 191.007C359.192 191.692 359.56 192.692 359.56 194.009V213.206C359.56 214.365 359.323 215.339 358.849 216.129C358.428 216.919 357.717 217.498 356.716 217.867C354.399 218.71 351.739 219.421 348.737 220C345.735 220.527 342.786 220.79 339.889 220.79ZM381.864 220.632C380.232 220.632 378.968 220.184 378.072 219.289C377.23 218.341 376.808 217.051 376.808 215.418V169.44C376.808 167.755 377.256 166.491 378.151 165.648C379.047 164.753 380.311 164.305 381.943 164.305H400.982C407.092 164.305 411.805 165.78 415.123 168.729C418.441 171.626 420.1 175.707 420.1 180.974C420.1 184.397 419.337 187.347 417.809 189.822C416.335 192.297 414.175 194.193 411.331 195.51C408.487 196.827 405.038 197.485 400.982 197.485L401.693 196.3H404.3C406.46 196.3 408.329 196.827 409.909 197.88C411.542 198.933 412.964 200.592 414.175 202.857L420.1 213.838C420.732 214.944 421.022 216.024 420.969 217.077C420.917 218.13 420.522 218.999 419.784 219.684C419.047 220.316 417.967 220.632 416.545 220.632C415.123 220.632 413.965 220.342 413.069 219.763C412.174 219.131 411.384 218.183 410.699 216.919L402.72 202.225C401.772 200.434 400.64 199.249 399.323 198.67C398.059 198.038 396.427 197.722 394.425 197.722H386.92V215.418C386.92 217.051 386.499 218.341 385.656 219.289C384.814 220.184 383.55 220.632 381.864 220.632ZM386.92 190.217H399.244C402.878 190.217 405.617 189.48 407.46 188.005C409.356 186.478 410.304 184.213 410.304 181.211C410.304 178.262 409.356 176.05 407.46 174.575C405.617 173.048 402.878 172.284 399.244 172.284H386.92V190.217ZM461.075 220.79C455.703 220.79 450.989 219.605 446.934 217.235C442.931 214.865 439.824 211.547 437.612 207.281C435.4 202.962 434.294 197.906 434.294 192.113C434.294 187.742 434.926 183.818 436.19 180.342C437.454 176.813 439.244 173.811 441.562 171.336C443.932 168.808 446.75 166.886 450.015 165.569C453.333 164.2 457.019 163.515 461.075 163.515C466.5 163.515 471.213 164.7 475.216 167.07C479.218 169.387 482.326 172.679 484.538 176.945C486.75 181.211 487.856 186.241 487.856 192.034C487.856 196.405 487.224 200.355 485.96 203.884C484.696 207.413 482.879 210.441 480.509 212.969C478.192 215.497 475.374 217.446 472.056 218.815C468.791 220.132 465.13 220.79 461.075 220.79ZM461.075 212.1C464.498 212.1 467.395 211.31 469.765 209.73C472.188 208.15 474.031 205.859 475.295 202.857C476.612 199.855 477.27 196.274 477.27 192.113C477.27 185.793 475.848 180.895 473.004 177.419C470.213 173.943 466.236 172.205 461.075 172.205C457.704 172.205 454.808 172.995 452.385 174.575C449.962 176.102 448.092 178.367 446.776 181.369C445.512 184.318 444.88 187.9 444.88 192.113C444.88 198.38 446.302 203.278 449.146 206.807C451.99 210.336 455.966 212.1 461.075 212.1ZM526.815 220.79C522.971 220.79 519.574 220.29 516.624 219.289C513.728 218.288 511.279 216.814 509.277 214.865C507.276 212.864 505.775 210.388 504.774 207.439C503.774 204.49 503.273 201.066 503.273 197.169V168.808C503.273 167.07 503.695 165.78 504.537 164.937C505.433 164.094 506.697 163.673 508.329 163.673C509.962 163.673 511.2 164.094 512.042 164.937C512.938 165.78 513.385 167.07 513.385 168.808V197.09C513.385 202.093 514.518 205.859 516.782 208.387C519.1 210.862 522.444 212.1 526.815 212.1C531.187 212.1 534.505 210.862 536.769 208.387C539.034 205.859 540.166 202.093 540.166 197.09V168.808C540.166 167.07 540.588 165.78 541.43 164.937C542.326 164.094 543.59 163.673 545.222 163.673C546.802 163.673 548.014 164.094 548.856 164.937C549.752 165.78 550.199 167.07 550.199 168.808V197.169C550.199 202.33 549.304 206.675 547.513 210.204C545.775 213.733 543.168 216.392 539.692 218.183C536.216 219.921 531.924 220.79 526.815 220.79ZM572.578 220.632C570.946 220.632 569.682 220.184 568.786 219.289C567.944 218.341 567.522 217.051 567.522 215.418V169.44C567.522 167.755 567.97 166.491 568.865 165.648C569.761 164.753 571.025 164.305 572.657 164.305H591.696C597.806 164.305 602.519 165.832 605.837 168.887C609.155 171.942 610.814 176.208 610.814 181.685C610.814 187.162 609.155 191.455 605.837 194.562C602.519 197.617 597.806 199.144 591.696 199.144H577.634V215.418C577.634 217.051 577.213 218.341 576.37 219.289C575.528 220.184 574.264 220.632 572.578 220.632ZM577.634 191.165H590.116C593.698 191.165 596.41 190.375 598.253 188.795C600.097 187.162 601.018 184.792 601.018 181.685C601.018 178.578 600.097 176.234 598.253 174.654C596.41 173.074 593.698 172.284 590.116 172.284H577.634V191.165Z" fill="black"/>
</svg>
