<svg width="1535" height="290" viewBox="0 0 1535 290" fill="none" xmlns="http://www.w3.org/2000/svg">
<path d="M23.8547 289.2C16.388 289.2 10.6547 287.067 6.65469 282.8C2.65469 278.533 0.654689 272.667 0.654689 265.2V24.8C0.654689 17.0666 2.78802 11.2 7.05469 7.19999C11.3214 2.93331 17.188 0.799976 24.6547 0.799976C31.3214 0.799976 36.5214 2.13332 40.2547 4.8C44.2547 7.2 47.8547 11.4667 51.0547 17.6L149.855 200.4H137.055L235.855 17.6C239.055 11.4667 242.521 7.2 246.255 4.8C249.988 2.13332 255.188 0.799976 261.855 0.799976C269.321 0.799976 275.055 2.93331 279.055 7.19999C283.055 11.2 285.055 17.0666 285.055 24.8V265.2C285.055 272.667 283.055 278.533 279.055 282.8C275.321 287.067 269.588 289.2 261.855 289.2C254.388 289.2 248.655 287.067 244.655 282.8C240.655 278.533 238.655 272.667 238.655 265.2V80H247.455L163.455 233.2C160.788 237.733 157.988 241.067 155.055 243.2C152.121 245.333 148.121 246.4 143.055 246.4C137.988 246.4 133.855 245.333 130.655 243.2C127.455 240.8 124.655 237.467 122.255 233.2L37.4547 79.6H47.0547V265.2C47.0547 272.667 45.0547 278.533 41.0547 282.8C37.3214 287.067 31.588 289.2 23.8547 289.2ZM487.52 290C460.32 290 436.454 284 415.92 272C395.654 260 379.92 243.2 368.72 221.6C357.52 199.733 351.92 174.133 351.92 144.8C351.92 122.667 355.12 102.8 361.52 85.2C367.92 67.3333 376.987 52.1333 388.72 39.6C400.72 26.8 414.987 17.0667 431.52 10.4C448.32 3.46666 466.987 -1.33514e-05 487.52 -1.33514e-05C514.987 -1.33514e-05 538.854 5.99999 559.12 18C579.387 29.7333 595.12 46.4 606.32 68C617.52 89.6 623.12 115.067 623.12 144.4C623.12 166.533 619.92 186.533 613.52 204.4C607.12 222.267 597.92 237.6 585.92 250.4C574.187 263.2 559.92 273.067 543.12 280C526.587 286.667 508.054 290 487.52 290ZM487.52 246C504.854 246 519.52 242 531.52 234C543.787 226 553.12 214.4 559.52 199.2C566.187 184 569.52 165.867 569.52 144.8C569.52 112.8 562.32 88 547.92 70.4C533.787 52.8 513.654 44 487.52 44C470.454 44 455.787 48 443.52 56C431.254 63.7333 421.787 75.2 415.12 90.4C408.72 105.333 405.52 123.467 405.52 144.8C405.52 176.533 412.72 201.333 427.12 219.2C441.52 237.067 461.654 246 487.52 246ZM716.383 286C707.583 286 700.783 283.733 695.983 279.2C691.449 274.4 689.183 267.6 689.183 258.8V31.2C689.183 22.4 691.449 15.7333 695.983 11.2C700.783 6.39998 707.583 3.99998 716.383 3.99998H812.383C832.116 3.99998 848.916 6.93332 862.783 12.8C876.649 18.6667 887.183 27.0667 894.383 38C901.849 48.9333 905.583 62 905.583 77.2C905.583 94.2667 900.649 108.667 890.783 120.4C880.916 132.133 867.449 140 850.383 144V138C870.116 140.933 885.449 148.4 896.383 160.4C907.316 172.4 912.783 188 912.783 207.2C912.783 232.267 904.249 251.733 887.183 265.6C870.383 279.2 846.916 286 816.783 286H716.383ZM738.383 247.2H810.383C828.516 247.2 841.849 243.733 850.383 236.8C858.916 229.6 863.183 218.933 863.183 204.8C863.183 190.4 858.916 179.733 850.383 172.8C841.849 165.867 828.516 162.4 810.383 162.4H738.383V247.2ZM738.383 123.6H803.583C821.183 123.6 834.249 120.267 842.783 113.6C851.583 106.667 855.983 96.5333 855.983 83.2C855.983 69.8667 851.583 59.8667 842.783 53.2C834.249 46.2667 821.183 42.8 803.583 42.8H738.383V123.6ZM1004.17 289.2C995.907 289.2 989.507 286.933 984.973 282.4C980.707 277.6 978.573 271.067 978.573 262.8V27.2C978.573 18.6667 980.707 12.1333 984.973 7.59998C989.507 3.06665 995.907 0.799976 1004.17 0.799976C1012.44 0.799976 1018.71 3.06665 1022.97 7.59998C1027.51 12.1333 1029.77 18.6667 1029.77 27.2V262.8C1029.77 271.067 1027.64 277.6 1023.37 282.4C1019.11 286.933 1012.71 289.2 1004.17 289.2ZM1131.46 286C1123.2 286 1116.8 283.733 1112.26 279.2C1107.73 274.4 1105.46 267.867 1105.46 259.6V28.8C1105.46 20.2667 1107.6 13.8667 1111.86 9.59998C1116.4 5.06666 1122.8 2.8 1131.06 2.8C1139.33 2.8 1145.6 5.06666 1149.86 9.59998C1154.4 13.8667 1156.66 20.2667 1156.66 28.8V242.4H1272.66C1279.86 242.4 1285.33 244.267 1289.06 248C1293.06 251.733 1295.06 257.067 1295.06 264C1295.06 270.933 1293.06 276.4 1289.06 280.4C1285.33 284.133 1279.86 286 1272.66 286H1131.46ZM1371.27 286C1362.47 286 1355.67 283.733 1350.87 279.2C1346.34 274.4 1344.07 267.6 1344.07 258.8V31.2C1344.07 22.4 1346.34 15.7333 1350.87 11.2C1355.67 6.39998 1362.47 3.99998 1371.27 3.99998H1514.07C1520.74 3.99998 1525.81 5.73332 1529.27 9.19999C1533.01 12.6667 1534.87 17.6 1534.87 24C1534.87 30.6666 1533.01 35.8666 1529.27 39.6C1525.81 43.0666 1520.74 44.8 1514.07 44.8H1393.27V122.4H1505.27C1512.21 122.4 1517.41 124.133 1520.87 127.6C1524.34 131.067 1526.07 136.133 1526.07 142.8C1526.07 149.467 1524.34 154.533 1520.87 158C1517.41 161.467 1512.21 163.2 1505.27 163.2H1393.27V245.2H1514.07C1520.74 245.2 1525.81 246.933 1529.27 250.4C1533.01 253.867 1534.87 258.933 1534.87 265.6C1534.87 272.267 1533.01 277.333 1529.27 280.8C1525.81 284.267 1520.74 286 1514.07 286H1371.27Z" fill="#F6F6F6"/>
</svg>
