<svg width="1140" height="290" viewBox="0 0 1140 290" fill="none" xmlns="http://www.w3.org/2000/svg">
<path d="M125.923 289.2C117.657 289.2 111.257 286.933 106.723 282.4C102.457 277.6 100.323 271.067 100.323 262.8V46.8H22.3234C15.3901 46.8 9.92344 44.9333 5.92344 41.2C2.1901 37.2 0.323437 31.8667 0.323437 25.2C0.323437 18.2667 2.1901 13.0667 5.92344 9.59998C9.92344 5.86665 15.3901 3.99998 22.3234 3.99998H229.523C236.457 3.99998 241.79 5.86665 245.523 9.59998C249.523 13.0667 251.523 18.2667 251.523 25.2C251.523 31.8667 249.523 37.2 245.523 41.2C241.79 44.9333 236.457 46.8 229.523 46.8H151.523V262.8C151.523 271.067 149.39 277.6 145.123 282.4C140.857 286.933 134.457 289.2 125.923 289.2ZM321.961 286C313.161 286 306.361 283.733 301.561 279.2C297.028 274.4 294.761 267.6 294.761 258.8V31.2C294.761 22.4 297.028 15.7333 301.561 11.2C306.361 6.39998 313.161 3.99998 321.961 3.99998H464.761C471.428 3.99998 476.494 5.73332 479.961 9.19999C483.694 12.6667 485.561 17.6 485.561 24C485.561 30.6666 483.694 35.8666 479.961 39.6C476.494 43.0666 471.428 44.8 464.761 44.8H343.961V122.4H455.961C462.894 122.4 468.094 124.133 471.561 127.6C475.028 131.067 476.761 136.133 476.761 142.8C476.761 149.467 475.028 154.533 471.561 158C468.094 161.467 462.894 163.2 455.961 163.2H343.961V245.2H464.761C471.428 245.2 476.494 246.933 479.961 250.4C483.694 253.867 485.561 258.933 485.561 265.6C485.561 272.267 483.694 277.333 479.961 280.8C476.494 284.267 471.428 286 464.761 286H321.961ZM545.155 289.2C538.755 289.2 533.555 287.733 529.555 284.8C525.821 281.867 523.555 278 522.755 273.2C521.955 268.133 522.888 262.533 525.555 256.4L631.155 22.4C634.621 14.6667 638.755 9.19999 643.555 5.99998C648.621 2.53331 654.355 0.799976 660.755 0.799976C666.888 0.799976 672.355 2.53331 677.155 5.99998C682.221 9.19999 686.488 14.6667 689.955 22.4L795.955 256.4C798.888 262.533 799.955 268.133 799.155 273.2C798.355 278.267 796.088 282.267 792.355 285.2C788.621 287.867 783.688 289.2 777.555 289.2C770.088 289.2 764.221 287.467 759.955 284C755.955 280.267 752.355 274.667 749.155 267.2L723.155 206.8L744.755 220.8H575.955L597.555 206.8L571.955 267.2C568.488 274.933 564.888 280.533 561.155 284C557.421 287.467 552.088 289.2 545.155 289.2ZM659.955 59.6L603.955 192.8L593.555 180H727.155L717.155 192.8L660.755 59.6H659.955ZM878.011 289.2C870.544 289.2 864.811 287.067 860.811 282.8C856.811 278.533 854.811 272.667 854.811 265.2V24.8C854.811 17.0666 856.944 11.2 861.211 7.19999C865.478 2.93331 871.344 0.799976 878.811 0.799976C885.478 0.799976 890.678 2.13332 894.411 4.8C898.411 7.2 902.011 11.4667 905.211 17.6L1004.01 200.4H991.211L1090.01 17.6C1093.21 11.4667 1096.68 7.2 1100.41 4.8C1104.14 2.13332 1109.34 0.799976 1116.01 0.799976C1123.48 0.799976 1129.21 2.93331 1133.21 7.19999C1137.21 11.2 1139.21 17.0666 1139.21 24.8V265.2C1139.21 272.667 1137.21 278.533 1133.21 282.8C1129.48 287.067 1123.74 289.2 1116.01 289.2C1108.54 289.2 1102.81 287.067 1098.81 282.8C1094.81 278.533 1092.81 272.667 1092.81 265.2V80H1101.61L1017.61 233.2C1014.94 237.733 1012.14 241.067 1009.21 243.2C1006.28 245.333 1002.28 246.4 997.211 246.4C992.144 246.4 988.011 245.333 984.811 243.2C981.611 240.8 978.811 237.467 976.411 233.2L891.611 79.6H901.211V265.2C901.211 272.667 899.211 278.533 895.211 282.8C891.478 287.067 885.744 289.2 878.011 289.2Z" fill="#F6F6F6"/>
</svg>
